<svg viewBox="0 0 300 237.49371576294575" preserveAspectRatio="xMidYMid meet" class="css-8aabad"
  id="faghbbfd">
  <defs id="SvgjsDefs1107"></defs>
  <g id="SvgjsG1108" featurekey="e7LhAk-0"
    transform="matrix(2.1052632987884587,0,0,2.1052632987884587,82.63157343490155,-4.2105265975769175)"
    fill="#111">
    <path xmlns="http://www.w3.org/2000/svg"
      d="M55.37,31.22H31.6l-.3-23.62c0-.27-.11-.52-.3-.7-.19-.19-.45-.3-.71-.28-14.02,.18-25.44,11.67-25.44,25.61,0,3.16,.59,6.23,1.73,9.16-1.91,2.19-3.08,5.02-3.08,8.12,0,6.89,5.73,12.5,12.76,12.5,3.97,0,7.51-1.78,9.86-4.57,1.48,.26,2.99,.4,4.49,.4,14.21,0,25.76-11.49,25.76-25.61,0-.55-.45-1-1-1ZM16.26,60c-5.94,0-10.76-4.71-10.76-10.5s4.83-10.5,10.76-10.5,10.76,4.71,10.76,10.5-4.83,10.5-10.76,10.5Zm14.34-4.17c-1.07,0-2.15-.08-3.22-.22,1.04-1.81,1.64-3.89,1.64-6.11,0-6.89-5.73-12.5-12.76-12.5-3.08,0-5.91,1.07-8.12,2.86-.86-2.45-1.3-5.02-1.3-7.64,0-12.52,9.99-22.89,22.46-23.58l.3,23.59c0,.55,.45,.99,1,.99h23.74c-.53,12.56-10.98,22.61-23.74,22.61Z"></path>
    <path xmlns="http://www.w3.org/2000/svg"
      d="M53,9.55c-4.83-4.83-11.27-7.51-18.13-7.55h0c-.55,0-1,.44-1,1l-.13,24.61c0,.27,.1,.52,.29,.71s.44,.29,.71,.29h24.76c.55,0,1-.45,1-1,0-6.82-2.66-13.23-7.5-18.06Zm-17.26,17.06l.12-22.58c5.95,.27,11.5,2.71,15.72,6.93,4.22,4.22,6.65,9.74,6.89,15.65h-22.74Z"></path>
    <path xmlns="http://www.w3.org/2000/svg"
      d="M18.04,48.48c-.21-.08-.46-.16-.72-.25-.23-.07-.47-.15-.72-.24-.9-.32-1.99-.81-2.36-1.71-.17-.42,.03-.81,.17-1,.36-.51,1.01-.82,1.75-.77,.6,.06,1.58,.37,2.1,.73,.45,.32,1.08,.21,1.39-.25,.32-.45,.21-1.08-.25-1.39-.59-.42-1.42-.73-2.15-.91v-1.46c0-.55-.45-1-1-1s-1,.45-1,1v1.35c-.99,.19-1.9,.73-2.48,1.55-.64,.9-.78,1.96-.39,2.92,.67,1.63,2.24,2.37,3.54,2.84,.27,.1,.53,.18,.78,.26,.23,.08,.45,.15,.64,.22,.71,.26,1.16,.66,1.29,1.13,.11,.38,0,.82-.28,1.19-.15,.18-.97,.64-2.14,.69-.7,.04-1.76-.08-2.84-.77-.46-.3-1.08-.16-1.38,.3-.3,.47-.16,1.08,.3,1.38,.9,.58,1.91,.92,2.96,1.03v1.32c0,.55,.45,1,1,1s1-.45,1-1v-1.39c1.16-.22,2.2-.72,2.68-1.35,.68-.88,.9-1.96,.61-2.96-.31-1.1-1.21-1.97-2.52-2.45Z"></path>
  </g>
  <g id="SvgjsG1109" featurekey="Qg0WB5-0"
    transform="matrix(4.070004541824323,0,0,4.070004541824323,-4.884006614626828,136.84248978089528)"
    fill="#111">
    <path
      d="M4.75 19.23 q-0.09 0.19 -0.15 0.335 t-0.135 0.24 t-0.185 0.145 t-0.3 0.05 l-1.98 0 q-0.8 0 -0.8 -0.77 l0 -14.94 q0 -0.17 0.065 -0.31 t0.17 -0.24 t0.24 -0.155 t0.265 -0.055 l2.27 0 q0.38 0 0.6 0.22 t0.22 0.54 l0 4.56 q0.28 -0.3 0.6 -0.61 t0.695 -0.565 t0.825 -0.415 t1 -0.16 q1.36 0 2.505 0.505 t1.97 1.39 t1.29 2.08 t0.465 2.585 q0 1.38 -0.465 2.58 t-1.29 2.085 t-1.97 1.395 t-2.505 0.51 q-0.51 0 -0.96 -0.175 t-0.84 -0.445 t-0.72 -0.58 t-0.6 -0.58 z M10.78 13.66 q0 -0.64 -0.205 -1.22 t-0.585 -1.02 t-0.91 -0.695 t-1.19 -0.255 t-1.235 0.255 t-0.995 0.695 t-0.665 1.02 t-0.245 1.22 l0 0.14 q0.03 0.63 0.285 1.18 t0.675 0.955 t0.98 0.635 t1.2 0.23 q0.66 0 1.19 -0.245 t0.91 -0.665 t0.585 -0.995 t0.205 -1.235 z M28.19 19.83 q-0.13 0.11 -0.275 0.14 t-0.275 0.03 l-1.51 0 q-0.18 0 -0.31 -0.065 t-0.22 -0.175 t-0.15 -0.25 t-0.1 -0.29 l-0.31 -1.28 q-0.15 0.31 -0.435 0.705 t-0.725 0.74 t-1.05 0.58 t-1.4 0.235 q-1.14 0 -2.07 -0.44 t-1.585 -1.2 t-1.015 -1.775 t-0.36 -2.165 l0 -6.55 q0 -0.38 0.165 -0.575 t0.525 -0.195 l2.31 0 q0.43 0 0.59 0.145 t0.16 0.565 l0 6.51 q0 0.43 0.195 0.815 t0.515 0.68 t0.725 0.465 t0.825 0.17 q0.36 0 0.745 -0.17 t0.71 -0.455 t0.535 -0.67 t0.21 -0.815 l0 -6.5 q0 -0.17 0.065 -0.34 t0.195 -0.26 q0.13 -0.08 0.245 -0.11 t0.265 -0.03 l2.26 0 q0.43 0 0.62 0.21 t0.19 0.56 l0 11.19 q0 0.19 -0.085 0.35 t-0.235 0.25 z M39.800000000000004 18.45 q-0.27 0.27 -0.595 0.58 t-0.715 0.58 t-0.84 0.445 t-0.97 0.175 q-1.36 0 -2.505 -0.51 t-1.97 -1.395 t-1.29 -2.085 t-0.465 -2.58 q0 -1.39 0.465 -2.585 t1.29 -2.08 t1.97 -1.39 t2.505 -0.505 q0.55 0 1.005 0.16 t0.83 0.41 t0.69 0.565 t0.595 0.615 l0 -4.57 q0 -0.32 0.195 -0.54 t0.585 -0.22 l2.25 0 q0.13 0 0.275 0.055 t0.265 0.155 t0.195 0.24 t0.075 0.31 l0 14.95 q0 0.77 -0.81 0.77 l-1.96 0 q-0.2 0 -0.31 -0.05 t-0.185 -0.145 t-0.135 -0.24 t-0.15 -0.335 z M34.050000000000004 13.66 q0 0.66 0.205 1.235 t0.585 0.995 t0.915 0.665 t1.185 0.245 q0.64 0 1.205 -0.23 t0.985 -0.635 t0.675 -0.955 t0.285 -1.18 l0 -0.14 q0 -0.64 -0.24 -1.22 t-0.665 -1.02 t-1 -0.695 t-1.245 -0.255 q-0.65 0 -1.185 0.255 t-0.915 0.695 t-0.585 1.02 t-0.205 1.22 z M55.5 19.56 q0.11 -0.34 0.105 -0.775 t-0.005 -0.885 q-0.29 0.31 -0.59 0.655 t-0.665 0.64 t-0.825 0.485 t-1.07 0.19 q-1.35 0 -2.5 -0.46 t-1.99 -1.285 t-1.31 -1.975 t-0.47 -2.53 q0 -1.37 0.47 -2.565 t1.31 -2.08 t1.99 -1.39 t2.5 -0.505 q0.62 0 1.115 0.19 t0.9 0.49 t0.74 0.675 t0.635 0.745 l0.38 -1.19 q0.06 -0.17 0.11 -0.31 t0.13 -0.235 t0.205 -0.145 t0.325 -0.05 l1.49 0 q0.11 0 0.255 0.03 t0.255 0.14 q0.14 0.11 0.21 0.24 t0.07 0.33 l0 10.18 q0 1.56 -0.51 2.78 t-1.395 2.06 t-2.095 1.28 t-2.6 0.44 q-0.54 0 -1.16 -0.095 t-1.235 -0.285 t-1.19 -0.485 t-1.015 -0.685 q-0.12 -0.09 -0.21 -0.21 t-0.125 -0.27 t0 -0.325 t0.165 -0.365 l0.95 -1.31 q0.26 -0.28 0.49 -0.3 t0.58 0.24 q0.25 0.24 0.575 0.385 t0.67 0.23 t0.68 0.11 t0.605 0.025 q0.45 0 0.94 -0.12 t0.915 -0.355 t0.75 -0.575 t0.445 -0.78 z M49.78 13.620000000000001 q0 0.67 0.205 1.245 t0.585 0.995 t0.915 0.66 t1.185 0.24 q0.64 0 1.205 -0.225 t0.985 -0.625 t0.675 -0.94 t0.285 -1.17 l0 -0.33 q-0.03 -0.61 -0.285 -1.155 t-0.675 -0.96 t-0.985 -0.66 t-1.205 -0.245 q-0.65 0 -1.185 0.255 t-0.915 0.685 t-0.585 1.01 t-0.205 1.22 z M61.66 8.08 q0 -0.32 0.18 -0.55 t0.56 -0.23 l2.29 0 q0.12 0 0.26 0.055 t0.26 0.16 t0.205 0.245 t0.085 0.32 l0 11.15 q0 0.38 -0.21 0.575 t-0.6 0.195 l-2.29 0 q-0.74 0 -0.74 -0.77 l0 -11.15 z M61.66 3.0199999999999996 q0 -0.42 0.18 -0.595 t0.56 -0.175 l2.32 0 q0.35 0 0.565 0.175 t0.215 0.595 l0 1.95 q0 0.12 -0.055 0.26 t-0.155 0.27 t-0.245 0.215 t-0.325 0.085 l-2.32 0 q-0.74 0 -0.74 -0.83 l0 -1.95 z M68.67 5.32 q0 -0.31 0.205 -0.465 t0.585 -0.295 l2.27 -0.79 q0.05 -0.01 0.095 -0.01 l0.085 0 q0.37 0 0.495 0.215 t0.125 0.565 l-0.01 3.15 l1.67 0 q0.32 0 0.52 0.19 t0.2 0.57 l0 1.93 q0 0.42 -0.2 0.615 t-0.52 0.195 l-1.67 0 l0.01 8.04 q0 0.38 -0.22 0.575 t-0.61 0.195 l-2.26 0 q-0.77 0 -0.77 -0.77 l-0.01 -8.04 l-0.73 0 q-0.77 0 -0.77 -0.81 l0 -1.93 q0 -0.76 0.77 -0.76 l0.73 0 z"></path>
  </g>
</svg>
